<svg id="Layer_1" data-name="Layer 1" xmlns="http://www.w3.org/2000/svg" xmlns:xlink="http://www.w3.org/1999/xlink" viewBox="0 0 635.65 595.63"><defs><style>.cls-1{fill:none;}.cls-2{fill:#d5dbda;}.cls-3{fill:#fff;}.cls-4{fill:#00bfd8;}.cls-5{fill:#ffd04d;}.cls-6{fill:#efefef;}.cls-7{fill:#66341b;}.cls-8{fill:#723e24;}.cls-9{opacity:0.3;}.cls-10{fill:#e8f6f7;}.cls-11{fill:#d0e0e2;}.cls-12{fill:#ffe1bd;}.cls-13{fill:#f4f4f4;}.cls-14{fill:#eaeaea;}.cls-15{fill:#3a3a3a;}.cls-16{fill:#e2e2e2;}.cls-17{fill:#f4d5b5;}.cls-18{fill:#632f00;}.cls-19{fill:#e8c5a0;}.cls-20{fill:#8c4200;}.cls-21{fill:#606060;}.cls-22{fill:#e5bb98;}.cls-23{fill:#d8d8d8;}.cls-24{fill:#09424c;}.cls-25{fill:#0c5a71;}.cls-26{opacity:0.1;}.cls-27{fill:#0b0b3a;}.cls-28,.cls-31{fill:#ce9006;}.cls-28{opacity:0.39;}.cls-28,.cls-47,.cls-53,.cls-60,.cls-61{isolation:isolate;}.cls-29{fill:#d69507;}.cls-30,.cls-47{fill:#efaf11;}.cls-32{fill:#fafeff;}.cls-33{fill:#b4eff9;}.cls-34{fill:#75d9ef;}.cls-35{opacity:0.5;}.cls-36{fill:#282c2d;}.cls-37{fill:#d6d6d6;}.cls-38{fill:#525252;}.cls-39{fill:#a5a5af;}.cls-40{fill:#f1f2f2;}.cls-41{fill:#a7a9ac;}.cls-42{fill:#383838;}.cls-43{fill:#e6e7e8;}.cls-44{fill:#58595b;}.cls-45{fill:#594a42;}.cls-46{fill:#81553a;}.cls-47{opacity:0.55;}.cls-48{fill:#709e3e;}.cls-49{opacity:0.62;}.cls-50{fill:#93bc6c;}.cls-51{fill:#4c2311;}.cls-52{fill:#1a1a47;}.cls-53,.cls-62{fill:#3d3d72;}.cls-53{opacity:0.54;}.cls-54{clip-path:url(#clip-path);}.cls-55{fill:#e1edf9;}.cls-56{fill:#c2e0f2;}.cls-57{fill:#ffd19f;}.cls-58{fill:#006466;}.cls-59{fill:#007d87;}.cls-60,.cls-61{fill:#00b3b7;}.cls-60{opacity:0.18;}.cls-61{opacity:0.45;}.cls-63{fill:#33305b;}.cls-64{fill:#bed8fb;}.cls-65{fill:#9dc6fb;}.cls-66{fill:#e6646e;}.cls-67{fill:#dc4655;}.cls-68{fill:#ffe17d;}.cls-69{fill:#ffc369;}</style><clipPath id="clip-path" transform="translate(0 0)"><path class="cls-1" d="M440.67,444.94l29.39,7,34.76.16,36-9.05,64.44,120-8.75,36.22S393,613.9,387.61,609.3s-30.88-29.3-34.47-38.92S440.67,444.94,440.67,444.94Z"/></clipPath></defs><title>header-teamwork-new</title><g id="Layer_1-2" data-name="Layer 1"><rect class="cls-2" x="186.89" y="5.48" width="439.34" height="259.52"/><rect class="cls-3" x="199.09" y="10.56" width="414.95" height="249.37"/><rect class="cls-4" x="416.84" y="169.14" width="16.03" height="16.03"/><rect class="cls-5" x="416.84" y="197.24" width="16.03" height="16.03"/><rect class="cls-6" x="437.29" y="204.16" width="50.83" height="9.11"/><rect class="cls-6" x="437.29" y="176.07" width="50.83" height="9.11"/><rect class="cls-4" x="511.14" y="169.14" width="16.03" height="16.03"/><rect class="cls-5" x="511.14" y="197.24" width="16.03" height="16.03"/><rect class="cls-6" x="531.59" y="204.16" width="50.83" height="9.11"/><rect class="cls-6" x="531.59" y="176.07" width="50.83" height="9.11"/><rect class="cls-6" x="430.53" y="70.66" width="150.25" height="3.42"/><rect class="cls-6" x="418.73" y="78.95" width="162.05" height="3.42"/><rect class="cls-6" x="418.73" y="87.23" width="162.05" height="3.42"/><rect class="cls-6" x="418.73" y="95.52" width="162.05" height="3.42"/><rect class="cls-6" x="418.73" y="103.81" width="162.05" height="3.42"/><rect class="cls-6" x="418.73" y="112.1" width="162.05" height="3.42"/><rect class="cls-6" x="418.73" y="120.39" width="162.05" height="3.42"/><rect class="cls-6" x="418.73" y="128.68" width="162.05" height="3.42"/><rect class="cls-6" x="441.85" y="136.97" width="138.93" height="3.42"/><path class="cls-7" d="M635.65,3.38a3.39,3.39,0,0,1-3.38,3.39H180.85a3.39,3.39,0,0,1-3.38-3.39h0A3.38,3.38,0,0,1,180.85,0H632.27a3.38,3.38,0,0,1,3.38,3.38Z" transform="translate(0 0)"/><path class="cls-7" d="M635.65,267.1a3.38,3.38,0,0,1-3.38,3.38H180.85a3.39,3.39,0,0,1-3.38-3.38h0a3.39,3.39,0,0,1,3.38-3.39H632.27a3.38,3.38,0,0,1,3.38,3.39Z" transform="translate(0 0)"/><path class="cls-8" d="M112.06,564.84l2.45-131H105.8l2.45,131a2,2,0,0,0,3.81.89A1.91,1.91,0,0,0,112.06,564.84Z" transform="translate(0 0)"/><path class="cls-8" d="M32,549.52,82.59,428.7l-8.1-3.22-46,122.64a2.25,2.25,0,0,0,.89,2.93A2.24,2.24,0,0,0,32,549.52Z" transform="translate(0 0)"/><path class="cls-8" d="M188.31,549.52,137.71,428.7l8.1-3.22,46.05,122.63a2,2,0,1,1-3.55,1.41Z" transform="translate(0 0)"/><g class="cls-9"><path d="M73.09,429.23l5.15,2L30.68,551A2.77,2.77,0,0,0,32,549.52L82.59,428.7l-8.1-3.22Z" transform="translate(0 0)"/><path d="M105.86,437.32h6.49l-2.43,129.9a.91.91,0,0,0,.23,0,2.25,2.25,0,0,0,1.91-2.41l2.45-131H105.8Z" transform="translate(0 0)"/><path d="M191.85,548.12l-46-122.64-8.1,3.22.93,2.22,5-2,45.78,121.93a1.73,1.73,0,0,0,1.53.2A2.24,2.24,0,0,0,191.85,548.12Z" transform="translate(0 0)"/></g><path class="cls-10" d="M170.18,440.06c-8.84,7.19-21.93,13.81-55.19,14.46-43.74.87-66.65-4.1-79.08-26.66-20.75-37.68,5.22-159.41,46.2-132.44,34.25,22.54,41.11,94.5,45.64,104.45S191.62,422.62,170.18,440.06Z" transform="translate(0 0)"/><path class="cls-11" d="M122.58,445.2c-43.75.87-66.65-4.1-79.08-26.66C29.33,392.82,36.93,328,56.22,297.93,31.54,320.81,20,399,35.92,427.86c12.43,22.56,35.33,27.52,79.08,26.66,33.25-.65,46.35-7.27,55.18-14.46,3-2.45,4.43-4.8,4.63-7.07C165.94,439.26,152.33,444.62,122.58,445.2Z" transform="translate(0 0)"/><path class="cls-12" d="M141.24,157.2c3-8.63,5.75-17.69,10.44-13.11,4.93,4.81,4.53,4.23,2.74,10.92S138.72,164.45,141.24,157.2Z" transform="translate(0 0)"/><path class="cls-12" d="M146.59,144.87c1.49-4.11,3.93-8.8,6.44-10.73s-1.3,4.85-2.19,8S145.34,148.32,146.59,144.87Z" transform="translate(0 0)"/><path class="cls-13" d="M142.56,191.61c3.51-13.18,5.27-30.42,5.27-30.42l-6.58-4.43s-13.4,27.54-20.64,48.45l-37.35-9.59-4.55-.92L90.86,219s36,5.23,38.18,4S139,205,142.56,191.61Z" transform="translate(0 0)"/><path class="cls-14" d="M129,223c-2.21,1.23-38.18-4-38.18-4L78.71,194.7l4.55.92c3.35,1.42,8.79,6.85,13.2,12.63,3.19,4.16,5,5.65,9.76,7.45,7.37,2.77,15.19,4.72,18.13,4.93,5,.34,5.46.58,6.52-.88A3.2,3.2,0,0,1,129,223Z" transform="translate(0 0)"/><path class="cls-13" d="M41.11,268a32.87,32.87,0,0,1,1.47,19c-2.79,12.58.39,13.42.39,13.42s17,10.82,31.21,15.24c10.16,3.16,18.82,2.62,18.58-8.59v-.16c0-.68,0-1.33,0-2-.48-25.21,4.78-26.49,6.07-54.72,1.34-29-6.4-45.1-14.06-52.11s-18.16-7.25-37.88-2.59C32,199,27.15,202.93,27.27,213.89a85,85,0,0,0,1.59,13.49C31.3,241.17,37.14,257.72,41.11,268Z" transform="translate(0 0)"/><path class="cls-15" d="M76.87,206s15.36,50.35,12.29,74.47l-5.66,10.3-6.19-11.23s5-48.22-4.6-72.69Z" transform="translate(0 0)"/><path class="cls-16" d="M41.11,268a32.87,32.87,0,0,1,1.47,19c-2.79,12.58.39,13.42.39,13.42s17,10.82,31.21,15.24l13.25-1.26,5.3-4.16,0-3.33c0-.68,0-1.33,0-2a99,99,0,0,1-20-.52,83.41,83.41,0,0,1-19.61-4.92A7.64,7.64,0,0,1,48.27,291a110.34,110.34,0,0,0,1.83-17.58c0-5.55-2.61-14.93-4.71-21.7a43.81,43.81,0,0,1-1.77-16.05,143,143,0,0,0,0-18.28l-10.5-5.69-5.85,2.18a86.21,86.21,0,0,0,1.6,13.5C31.3,241.17,37.14,257.72,41.11,268Z" transform="translate(0 0)"/><path class="cls-17" d="M40.89,321.5c-1.21.21-4.31-5.24-4.31-5.24l1.3-1.73a5.78,5.78,0,0,1,2.92-2l.21-.07a2.52,2.52,0,0,1,2.81,1c.89,1.32,2.27,2.82,3.86,2.77h0a.33.33,0,0,0,.17,0C49.3,316.2,42.1,321.31,40.89,321.5Z" transform="translate(0 0)"/><path class="cls-18" d="M88.73,146.3s1.32,3.68-.67,6.6l-8.13-11,5.67-.06Z" transform="translate(0 0)"/><path class="cls-12" d="M44.59,160.85c.36,14.19,12.6,22.42,12.6,22.42l-.82,12.91,8.26,5.35,5.66,3.67,3.26-6.79.44-8.33a4.3,4.3,0,0,1,3.41-4,15.57,15.57,0,0,0,8-4.86,6.32,6.32,0,0,0,.52-.64h0c5.36-7.31,7.4-35.31-11-43.26C56.05,129.12,44.22,146.64,44.59,160.85Z" transform="translate(0 0)"/><path class="cls-19" d="M65.18,193.79l-.55,7.74,5.66,3.67,3.26-6.79.44-8.33a4.3,4.3,0,0,1,3.41-4,15.57,15.57,0,0,0,8-4.86,6.32,6.32,0,0,0,.52-.64,30.62,30.62,0,0,1-11.56,3.58A10.41,10.41,0,0,0,65.18,193.79Z" transform="translate(0 0)"/><path class="cls-20" d="M64.4,165.23c-.72.29-1.4-.82-1.4-.82s-4-8.94-5.35-10.31c-2.45-2.49-8.23-2.26-8.69,5.41-.35,6,6.66,18.61,8.82,22.33a1.42,1.42,0,0,1-.36,1.8,1.82,1.82,0,0,1-.78.3h-.1a1.4,1.4,0,0,1-.92-.33c-4.53-4-24.51-23.14-8.65-41.16,0,0,12.6.81,14.53,6.88a127.82,127.82,0,0,1,3.3,14.34S65.15,164.9,64.4,165.23Z" transform="translate(0 0)"/><path class="cls-20" d="M88.73,146.3s-11-8.6-27.77,1.88l-13.71-3.5s-.58-.19-.28-2.24,1.82-22.22,25.84-17.68C86.62,127.36,95.08,136.93,88.73,146.3Z" transform="translate(0 0)"/><path class="cls-21" d="M77.93,201.71l-.08.66a13.11,13.11,0,0,1-1,3.63h0l-4.16.85-3.62-2.7,4.15-4.83.65.16a9.2,9.2,0,0,1,4,2.17Z" transform="translate(0 0)"/><path class="cls-16" d="M56.47,190.16a13.2,13.2,0,0,0-4,4.1,53.7,53.7,0,0,1,5.1,2.67c2.17,1.33,12.59,8.69,12.59,8.69l3.07-6.3S62.36,191.81,56.47,190.16Z" transform="translate(0 0)"/><path class="cls-16" d="M73.24,199.32s3.65,1.25,4.77,4c0,0,1.87-3.57-.52-9.94A16.55,16.55,0,0,0,74,190.79Z" transform="translate(0 0)"/><path class="cls-22" d="M44.26,312.61a21.85,21.85,0,0,0,2.51,2.75c.58.32.67-.35.46-.83S44.35,312,44.26,312.61Z" transform="translate(0 0)"/><path class="cls-18" d="M56.63,183.93h-.1a1.37,1.37,0,0,1-.91-.32c-4.54-4-24.52-23.15-8.65-41.17a18.53,18.53,0,0,0-.46,5.75S36.39,164.54,56.63,183.93Z" transform="translate(0 0)"/><ellipse class="cls-23" cx="66.46" cy="567.88" rx="65.84" ry="5.01"/><path class="cls-20" d="M33.93,548.77c.86,3.32.53,4.51.87,6.68.43,2.69,2.9,3.67,4.33,5.87,1.58,2.43,4,6.33-5.62,6.53-10.35.21-16.48-.51-14.72-6.36s2.1-8.43,2-10.33,0-3.9,1.17-5S32.4,542.91,33.93,548.77Z" transform="translate(0 0)"/><path class="cls-15" d="M36.11,362.78S19.78,336.71,43,300.4c0,0,18.07,8.09,32.55,9.06,11.4.77,17.18-.41,17.18-.41s1,34.91,1,53.73Z" transform="translate(0 0)"/><path class="cls-15" d="M47.12,438.55c4.47-18.85-14.07-22.17-19.93-8.53C18.9,449.3,19.56,534,20,546.31c0,1.61.9,1.31,1.8,1,2.64-.95,4.85-1.33,5.9-1.1a35.57,35.57,0,0,1,6.09,2.53C35.54,532,42.8,456.8,47.12,438.55Z" transform="translate(0 0)"/><path class="cls-15" d="M63.8,365.32c2-23.41-7-41.6-21-33.86-5.89,3.25-8,9.76-8.84,15.89s-5.12,69.83-6.64,81.34c-3.43,25.95,16.32,18.95,18.46,11.76C51.22,422.3,62.74,378.08,63.8,365.32Z" transform="translate(0 0)"/><path class="cls-15" d="M96.77,437.33c.73-17.57-14-16.55-19.89-2.9-12.81,29.49.09,92.28,2.72,121.9,2.87-4.77,8.32-6.38,9.59-6.28a4.55,4.55,0,0,1,3.2,1.8C92,515.52,96,456.12,96.77,437.33Z" transform="translate(0 0)"/><path class="cls-15" d="M77.54,439.24c2.19,7.17,21.06,15.47,19.09-10.64-.88-11.58-3.2-75.54-3.66-81.7s-1.48-15.18-4.46-16.3c-14.9-5.62-29.34,12.77-25.42,35.91C65.7,382,73,424.36,77.54,439.24Z" transform="translate(0 0)"/><path class="cls-20" d="M92.34,552.38c.78,1.52,4.52,5,9.71,7.35s16.17,3.4,10.07,5.44-13.22.8-16.83.23a73.07,73.07,0,0,0-11.35-.69c-5.61,0-5.65-.38-4.9-6.7C80.08,549.3,89.82,547.46,92.34,552.38Z" transform="translate(0 0)"/><path class="cls-12" d="M39.87,307.42l2.88,4.05a7.51,7.51,0,0,1,7.59,4c2.44,4.78-6.18,10.75-8.63,8.55s-7.78-12.39-7.78-12.39Z" transform="translate(0 0)"/><path class="cls-13" d="M18.33,294.55a204.05,204.05,0,0,1,16,18.9l1.49-1,5.69-3.87s-11.67-24.44-15-36.38a42.42,42.42,0,0,0-6.87-13.86c.23-.22.43-.43.65-.66,8.46-9,15.06-20.62,20.07-27.73a28.66,28.66,0,0,0,4.8-11.47A25.5,25.5,0,0,0,45.2,210c-.71-4.47-2.59-8.58-6.91-9.64a7.7,7.7,0,0,0-4.74.36,8.6,8.6,0,0,0-4.06,3.45c-6.6,10.66-25.27,39.54-28.21,46.67a14.78,14.78,0,0,0-1,3.64,10.83,10.83,0,0,0-.2,1.25C-1.06,267.45,10.55,286.7,18.33,294.55Z" transform="translate(0 0)"/><path class="cls-14" d="M18.33,294.55a204.05,204.05,0,0,1,16,18.9l1.49-1s-8.56-11.93-12.61-16.77c-6.2-7.4-10.56-13.17-14.26-20s-5.44-19.9-3.48-23.58,12.87-19.92,15.21-23,21.52-22.24,16-27.57a3.86,3.86,0,0,0-3.09-.77,8.6,8.6,0,0,0-4.06,3.45c-6.6,10.66-25.27,39.54-28.21,46.67a14.78,14.78,0,0,0-1,3.64,10.83,10.83,0,0,0-.2,1.25C-1.06,267.45,10.55,286.7,18.33,294.55Z" transform="translate(0 0)"/><path class="cls-15" d="M48.88,311.7S46.25,321,34.54,326.33c-10.1,4.61,16.17,7.25,16.76,6.22s5.63-18,5.63-18Z" transform="translate(0 0)"/><path class="cls-8" d="M250.14,557.48,252.6,425.7h-8.76l2.46,131.78a2,2,0,0,0,3.84.89A1.91,1.91,0,0,0,250.14,557.48Z" transform="translate(0 0)"/><path class="cls-8" d="M169.58,542.06,220.49,420.5l-8.15-3.24L166,540.65a2,2,0,0,0,3.24,2.25A2.11,2.11,0,0,0,169.58,542.06Z" transform="translate(0 0)"/><path class="cls-8" d="M326.86,542.06,276,420.5l8.15-3.24,46.32,123.39a2,2,0,0,1-3.23,2.25A2,2,0,0,1,326.86,542.06Z" transform="translate(0 0)"/><g class="cls-9"><path d="M210.93,421l5.18,2.06L168.26,543.51a2.79,2.79,0,0,0,1.32-1.45L220.49,420.5l-8.15-3.24Z" transform="translate(0 0)"/><path d="M243.9,429.17h6.53L248,559.87l.23,0a2.26,2.26,0,0,0,1.92-2.42l2.46-131.77h-8.76Z" transform="translate(0 0)"/><path d="M330.42,540.65,284.1,417.26,276,420.5l.93,2.23,5-2L328,543.41a1.72,1.72,0,0,0,1.54.2A2.24,2.24,0,0,0,330.42,540.65Z" transform="translate(0 0)"/></g><path class="cls-10" d="M312,380.62c0,50.54-28.57,62.64-63.81,62.64s-63.82-12.1-63.82-62.64,28.57-99.39,63.82-99.39S312,330.08,312,380.62Z" transform="translate(0 0)"/><path class="cls-11" d="M253.34,431.88c-35.24,0-63.81-12.1-63.81-62.64a138.14,138.14,0,0,1,9.27-49.68c-9,17.45-14.4,39.1-14.4,61.06,0,50.54,28.58,62.64,63.82,62.64,27.63,0,51.16-7.44,60-35C297.13,426.56,276.71,431.88,253.34,431.88Z" transform="translate(0 0)"/><path class="cls-24" d="M217.62,367.37s-8.2,17.47-9.86,29.15c-2.44,17,1.16,24.43,22.94,25.11s28.12-3.57,38.5-3.57,22.46-19.68,9.08-43.06Z" transform="translate(0 0)"/><path class="cls-12" d="M227,510.5l-.4,6.61s-6.44,19-6.75,23.74c-.56,8.34,3.12,17.67,6.7,17.62,4.08-.06,9.7-5.29,12.21-15.74,1.7-7.07-1.05-20.93-.08-24.18s3-9.56,3-9.56Z" transform="translate(0 0)"/><path class="cls-20" d="M239.25,538.67c-2.82,2.85-8.56,8.84-10.83,8.72s-6.5-7.38-7.88-10.38a26.22,26.22,0,0,0-.71,3.84c-.55,8.33,3.13,17.67,6.7,17.61,4.08-.06,9.7-5.29,12.21-15.73A23.24,23.24,0,0,0,239.25,538.67Z" transform="translate(0 0)"/><path class="cls-25" d="M241.29,513.71s26-82.15,29.27-92.25,5.87-29.33-9.19-32.68c-13-2.9-18.46,16.5-20.84,28.45s-14.37,91.68-14.37,91.68-1.41,4.49,6.36,5.77S241.29,513.71,241.29,513.71Z" transform="translate(0 0)"/><g class="cls-26"><path d="M256.79,388.7c-5.65,7.72-8.51,22.13-10.11,30.15-2.38,11.95-14.24,93.32-14.24,93.32s2,1,6.33,3a15.89,15.89,0,0,0-2.07,0c-8.38.6-10.42-4.58-10.42-4.58s11.87-81.37,14.25-93.31C242.61,406.8,247,390.67,256.79,388.7Z" transform="translate(0 0)"/></g><path class="cls-12" d="M194.35,507.33l-.86,6.57s-7.77,18.45-8.43,23.2c-1.14,8.27,1.86,17.84,5.44,18,4.07.23,10.05-4.59,13.29-14.83,2.2-6.94.44-21,1.65-24.13s3.62-9.32,3.62-9.32Z" transform="translate(0 0)"/><path class="cls-20" d="M204.59,536.31c-3,2.64-9.16,8.21-11.43,7.93s-6-7.82-7.12-10.92a25.58,25.58,0,0,0-1,3.78c-1.14,8.27,1.86,17.84,5.44,18,4.07.23,10.05-4.59,13.29-14.83A22.78,22.78,0,0,0,204.59,536.31Z" transform="translate(0 0)"/><path class="cls-25" d="M208.4,511.56s31.8-80.09,35.76-89.94,7.93-28.83-6.85-33.25c-12.77-3.81-19.59,15.15-22.81,26.9s-20.85,90.43-20.85,90.43-1.73,4.37,5.93,6.2S208.4,511.56,208.4,511.56Z" transform="translate(0 0)"/><g class="cls-26"><path d="M232.76,388c-6.19,7.3-10.07,21.47-12.23,29.36-3.23,11.75-20.85,92.07-20.85,92.07s1.93,1.16,6.1,3.4a15.74,15.74,0,0,0-2.06-.16c-8.39,0-10.06-5.3-10.06-5.3S211.28,427,214.5,415.27C217.31,405,222.88,389.24,232.76,388Z" transform="translate(0 0)"/></g><path id="_Path_" data-name=" Path " class="cls-27" d="M231.65,201.27s2.88-12.38,23.51-8.4c19.69,3.8,18.45,31.26,20.74,38.73a175.36,175.36,0,0,0,7,17.57,1.49,1.49,0,0,1-.73,2,.47.47,0,0,1-.15.06c-7.28,2.42-38.17,11.48-59.24-1.16a10,10,0,0,1-4.2-4.75,7.07,7.07,0,0,1-.57-2.94c.15-3.29,2-7.3.57-16.9S218.91,201,231.65,201.27Z" transform="translate(0 0)"/><path id="_Path_2" data-name=" Path 2" class="cls-12" d="M225.59,227.81a11.27,11.27,0,0,0-1.67,8.69,5.84,5.84,0,0,0,5.79,5.26l.66-5.4-1.44-9.5Z" transform="translate(0 0)"/><path id="_Path_3" data-name=" Path 3" class="cls-12" d="M271.66,227.81a11.27,11.27,0,0,1,1.67,8.69,5.84,5.84,0,0,1-5.79,5.26l-.65-5.4,1.43-9.5Z" transform="translate(0 0)"/><path id="_Path_4" data-name=" Path 4" class="cls-5" d="M275,332.92a79.14,79.14,0,0,0,.36,14.76c.6,6.28,2.7,29.28,2.7,29.28a77.5,77.5,0,0,1-13,3.51c-11,2.1-30.09-3.56-47.76-9.56,0,0,6.49-15.93,6.58-29,0-1.79,0-3.63-.12-5.53a114.69,114.69,0,0,0-1.89-12.07c-.18-1-.36-2-.55-3.09-.66-3.84-1.32-8.06-1.8-12.35a97.31,97.31,0,0,1-.64-12.88c-1.6-11.52,1.93-22.86,1.93-22.86s14.56-6.09,20.71-6.91c0,0,10.91-2.5,18.57,0,10,3.33,15.51,5.26,20,7.72.48.27,3.4,8.81,2.12,16.34-1.88,11-4.65,26.17-6.14,35.26C275.45,329.18,275.06,331.85,275,332.92Z" transform="translate(0 0)"/><path id="_Path_5" data-name=" Path 5" class="cls-28" d="M278.06,379.66a43.93,43.93,0,0,0-13,.81c-3.07-7.92-2.1-36.67-2.1-36.67-8.6-1.43-21.67-6.58-21.67-6.58-3.43,1.62-14.06,3.95-17.41,4.66,0-1.79,0-3.63-.11-5.52a117.12,117.12,0,0,0-1.89-12.08c4-2.81,11.49,3.39,11.49,3.39L271,321.75a30.74,30.74,0,0,1,5,3.8c-.6,3.63-1,6.3-1.05,7.37a79.14,79.14,0,0,0,.36,14.76C276,354,278.06,379.66,278.06,379.66Z" transform="translate(0 0)"/><path id="_Path_6" data-name=" Path 6" class="cls-12" d="M270,221.6c0,5.53-1.11,18.4-4.58,26.92a23.92,23.92,0,0,1-9.76,11.66c-.05,2.22-.1,5.13,1.45,5.37.45,1,1,1.23.71,2.78-1,5.5-7.44,11.58-9,13.11s-2.56,0-2.56,0a35.1,35.1,0,0,1-4.67-6.91c-.79-1.49-1.41-2.84-1.8-3.79a4.76,4.76,0,0,1,.43-4.38c1.7-.21,1.08-3.85.94-5.8-3.28-2.34-6.37-6.34-8.67-11-4.62-9.43-4.87-21.41-4.87-27.93a21.2,21.2,0,1,1,42.39,0Z" transform="translate(0 0)"/><path id="_Path_7" data-name=" Path 7" class="cls-19" d="M255.4,260.29c-1.25.46-6.35,2.44-7.33,4.58-1.11,2.46-1.74,6.45-2.78,7.57a12.56,12.56,0,0,1-3.68,2.09c-.79-1.49-1.41-2.84-1.8-3.79a4.76,4.76,0,0,1,.43-4.38c1.7-.21,1.08-3.85.94-5.8a17.46,17.46,0,0,0,6.7,1.23A40.07,40.07,0,0,0,255.4,260.29Z" transform="translate(0 0)"/><path id="_Path_8" data-name=" Path 8" class="cls-12" d="M263.15,316.34a40.91,40.91,0,0,1,4.44-.64c1.07,0-2,9.63-2,9.63a5,5,0,0,0-2.44-1.4c-1.32-.22-.82-7.48-.82-7.48Z" transform="translate(0 0)"/><path id="_Path_9" data-name=" Path 9" class="cls-29" d="M280.07,274s9.58,4.93,9,12.37-11.79,48.12-13.72,53.48-50.81-10.89-50.81-10.89,1.52-6.53,2.86-8.33c0,0,33.41,3.56,37.8,5.28,0,0,6.78-32.27,8.88-38S280.07,274,280.07,274Z" transform="translate(0 0)"/><path id="_Path_10" data-name=" Path 10" class="cls-30" d="M263.82,324.61c-5.07,2.87-43.67,18.9-47.24,17.91s-7.89-4.16-8.46-13.61c-.5-8.39,4.35-41.44,5.49-49.09a6.73,6.73,0,0,1,1.44-3.3,10,10,0,0,1,.75-.71,20,20,0,0,1,5-2.72c.48,1.09.35,5.56.95,13.4a9.49,9.49,0,0,1-.17,2.66c-1,4.57-2.13,10.53-2.06,13.69a5.63,5.63,0,0,0,0,.58c.33,3.32,2.8,9.62,2.84,12.28.08,6.27.06,7.16,0,7.26,1.38-.23,6.2-1.09,12.07-2.13l28.77-5.17C264.69,318.74,263.82,324.61,263.82,324.61Z" transform="translate(0 0)"/><path id="_Path_11" data-name=" Path 11" class="cls-27" d="M223.35,229.91s6.7-1.13,10.57-6.16a35.11,35.11,0,0,0,4.7-9.33s2.34,5,10.22,8.62a81.25,81.25,0,0,0,24.4,6.87s.52-18.33-5.5-25.78-21.62-11.74-32.22-5.3S223.35,229.91,223.35,229.91Z" transform="translate(0 0)"/><path id="_Path_12" data-name=" Path 12" class="cls-31" d="M240.31,266.22s1.1,9.88,6,15.22c0,0-1.61-.53-4.61,3.08a.78.78,0,0,1-1.09.1.81.81,0,0,1-.26-.42c-.93-4-4-13.85-2.29-17.27A2.43,2.43,0,0,1,240.31,266.22Z" transform="translate(0 0)"/><path id="_Path_13" data-name=" Path 13" class="cls-31" d="M257,265.5a64.61,64.61,0,0,1-3,8.45,29.65,29.65,0,0,1-5.43,7.7s3.75.7,5.49,3.17a.61.61,0,0,0,.85.14.64.64,0,0,0,.22-.27,42.52,42.52,0,0,0,3-8.62c1.43-5.1,1.49-7.9,1.32-10A2.17,2.17,0,0,0,257,265.5Z" transform="translate(0 0)"/><path id="_Path_14" data-name=" Path 14" class="cls-28" d="M219.67,325.61c-3.91-3.34.76-9.7.42-11.93s-.32-2.6-.6-4.84a18.93,18.93,0,0,1,0-5.42c.33,3.32,2.8,9.62,2.84,12.28.08,6.28.06,7.16,0,7.26,1.39-.23,14.33-2.55,20.21-3.59C244,320.1,222.3,327.85,219.67,325.61Z" transform="translate(0 0)"/><path id="_Path_15" data-name=" Path 15" class="cls-12" d="M226.55,322.24l-4.14.73a64.6,64.6,0,0,0-7.75-.22,24.61,24.61,0,0,0-5.93,1.27.81.81,0,0,1-1-.61.64.64,0,0,0,0-.07,11.93,11.93,0,0,1-.5-4.24,15.63,15.63,0,0,1,1.08-4.09,1.69,1.69,0,0,1,1-.9c1.54-.55,3.37-.49,6.05-.26a7.77,7.77,0,0,1,6.08,3.14l1.7,2a3.84,3.84,0,0,0,2.14,1.26l2.05.43s-.23.36-.42.74A6.33,6.33,0,0,0,226.55,322.24Z" transform="translate(0 0)"/><polygon class="cls-32" points="143.5 362.46 145.41 325.44 127.29 325.44 129.21 362.46 143.5 362.46"/><polygon class="cls-33" points="130.83 360.72 129.15 327.18 143.55 327.18 141.87 360.72 130.83 360.72"/><polygon class="cls-34" points="129.7 335.38 130.83 360.72 141.87 360.72 143 335.38 129.7 335.38"/><g class="cls-35"><path class="cls-3" d="M132,357.1h3l-1.78-26.43c-.36-3.2-3.35-3.37-2.88.27Z" transform="translate(0 0)"/></g><rect class="cls-36" x="85.26" y="367.52" width="83.96" height="5.26"/><rect class="cls-37" x="86.08" y="362.3" width="76.06" height="4.22"/><rect class="cls-38" x="82.13" y="365.51" width="83.96" height="2.01"/><rect class="cls-39" x="87.64" y="363.92" width="72.93" height="0.43"/><rect class="cls-39" x="87.64" y="364.86" width="72.93" height="0.43"/><rect class="cls-39" x="87.64" y="362.93" width="72.93" height="0.43"/><rect class="cls-40" x="464.3" y="363.19" width="34.67" height="8.6"/><rect class="cls-41" x="488.03" y="363.19" width="10.94" height="8.6"/><rect class="cls-41" x="462.16" y="363.19" width="34.67" height="0.99"/><rect class="cls-41" x="462.16" y="370.8" width="34.67" height="0.99"/><rect class="cls-42" x="488.98" y="363.19" width="45.25" height="8.6"/><rect class="cls-41" x="493.84" y="365.19" width="24.21" height="4.6"/><rect class="cls-43" x="495.14" y="365.44" width="21.6" height="4.11"/><ellipse class="cls-41" cx="527.91" cy="367.49" rx="2.83" ry="2.3"/><rect class="cls-41" x="466.36" y="364.75" width="19.78" height="0.87"/><rect class="cls-41" x="466.36" y="368.1" width="19.78" height="0.87"/><rect class="cls-41" x="466.36" y="369.36" width="19.78" height="0.87"/><rect class="cls-41" x="472.56" y="366.68" width="12.32" height="0.87"/><rect class="cls-41" x="466.36" y="366.68" width="5.21" height="0.87"/><rect class="cls-40" x="457.77" y="354.79" width="34.67" height="8.6"/><rect class="cls-41" x="481.5" y="354.79" width="10.94" height="8.6"/><rect class="cls-41" x="455.63" y="354.79" width="34.67" height="0.99"/><rect class="cls-41" x="455.63" y="362.4" width="34.67" height="0.99"/><rect class="cls-44" x="482.45" y="354.79" width="45.25" height="8.6"/><rect class="cls-41" x="487.31" y="356.79" width="24.21" height="4.6"/><rect class="cls-43" x="488.61" y="357.04" width="21.6" height="4.11"/><ellipse class="cls-41" cx="521.38" cy="359.1" rx="2.83" ry="2.3"/><rect class="cls-41" x="459.84" y="356.35" width="19.78" height="0.87"/><rect class="cls-41" x="459.84" y="359.7" width="19.78" height="0.87"/><rect class="cls-41" x="459.84" y="360.96" width="19.78" height="0.87"/><rect class="cls-41" x="466.03" y="358.28" width="12.32" height="0.87"/><rect class="cls-41" x="459.84" y="358.28" width="5.21" height="0.87"/><rect class="cls-40" x="464.3" y="346.39" width="34.67" height="8.6"/><rect class="cls-41" x="488.03" y="346.39" width="10.94" height="8.6"/><rect class="cls-41" x="462.16" y="346.39" width="34.67" height="0.99"/><rect class="cls-41" x="462.16" y="354.01" width="34.67" height="0.99"/><rect class="cls-45" x="488.98" y="346.39" width="45.25" height="8.6"/><rect class="cls-41" x="493.84" y="348.39" width="24.21" height="4.6"/><rect class="cls-43" x="495.14" y="348.64" width="21.6" height="4.11"/><ellipse class="cls-41" cx="527.91" cy="350.7" rx="2.83" ry="2.31"/><rect class="cls-41" x="466.36" y="347.96" width="19.78" height="0.87"/><rect class="cls-41" x="466.36" y="351.3" width="19.78" height="0.87"/><rect class="cls-41" x="466.36" y="352.56" width="19.78" height="0.87"/><rect class="cls-41" x="472.56" y="349.88" width="12.32" height="0.87"/><rect class="cls-41" x="466.36" y="349.88" width="5.21" height="0.87"/><polygon class="cls-32" points="537.22 371.56 539.14 343.08 521.01 343.08 522.93 371.56 537.22 371.56"/><polygon class="cls-33" points="524.56 369.82 522.87 344.82 537.28 344.82 535.59 369.82 524.56 369.82"/><polygon class="cls-34" points="523.42 353.02 524.56 369.82 535.59 369.82 536.72 353.02 523.42 353.02"/><g class="cls-35"><path class="cls-3" d="M525.72,366.2h3L527,348.31c-.36-3.2-3.35-3.37-2.88.27Z" transform="translate(0 0)"/></g><path class="cls-46" d="M171.24,342.63a17.39,17.39,0,0,0,10.91,14.09.11.11,0,0,0,.12-.06.1.1,0,0,0-.05-.11c-5.76-2.71-10-7.45-10.83-13.93,0-.1-.17-.1-.15,0h0Z" transform="translate(0 0)"/><path class="cls-46" d="M181.65,333.07a21.09,21.09,0,0,1-3.92,22.87.1.1,0,0,0,0,.14.09.09,0,0,0,.13,0A20.73,20.73,0,0,0,181.77,333c0-.09-.15,0-.12.07Z" transform="translate(0 0)"/><path class="cls-46" d="M198.29,336.64c3.1,3.94,1.36,8.48-.6,12.5-1.73,3.54-5.26,5.21-8.69,6.7a.13.13,0,0,0,.1.24c4.41-1.57,7.71-4,9.53-8.37,1.62-3.88,2.65-7.67-.19-11.22-.08-.1-.23.05-.15.15Z" transform="translate(0 0)"/><path class="cls-46" d="M196.5,349.2a8,8,0,0,0,7.67-3.14.1.1,0,0,0-.06-.13.09.09,0,0,0-.09,0,8.9,8.9,0,0,1-7.5,3.12.07.07,0,0,0,0,.14Z" transform="translate(0 0)"/><path class="cls-46" d="M188.47,334.41c-.48,4.25-1.65,11.56-5.95,13.66a.1.1,0,0,0,0,.13.1.1,0,0,0,.11.05c4.54-1.68,5.63-9.8,6-13.84,0-.1-.15-.1-.16,0Z" transform="translate(0 0)"/><path class="cls-46" d="M163.42,340.38a9.62,9.62,0,0,0,9.94,8.36.07.07,0,0,0,.07-.07.07.07,0,0,0-.07-.06,9.85,9.85,0,0,1-9.8-8.27c0-.09-.16,0-.14,0Z" transform="translate(0 0)"/><path class="cls-5" d="M203.53,351.88H167.58s-2.91,7-2.91,8.76,4,5.29,8.24,5.29H198.2c4.27,0,8.24-3.56,8.24-5.29S203.53,351.88,203.53,351.88Z" transform="translate(0 0)"/><polygon class="cls-30" points="199.7 367.74 171.4 367.74 172.39 365.93 198.71 365.93 199.7 367.74"/><path class="cls-30" d="M175.59,360.64c0-1.74,2.92-8.76,2.92-8.76H167.58s-2.91,7-2.91,8.76,4,5.29,8.24,5.29h10.93C179.56,365.93,175.59,362.37,175.59,360.64Z" transform="translate(0 0)"/><polygon class="cls-47" points="172.39 365.93 171.4 367.74 182.33 367.74 183.32 365.93 172.39 365.93"/><path class="cls-48" d="M184.21,338.82c.82-.64,4-1.78,6.19-.42a9.23,9.23,0,0,1,4.47,7.25,22.86,22.86,0,0,1-5.94.57C182.2,345.69,182.69,340,184.21,338.82Z" transform="translate(0 0)"/><path class="cls-48" d="M200.59,335.24c.54-.47,2.73-1.36,4.25-.49a6.38,6.38,0,0,1,3.32,4.85,15.65,15.65,0,0,1-4.08.59C199.42,340,199.58,336.1,200.59,335.24Z" transform="translate(0 0)"/><path class="cls-48" d="M199.11,332.92a3,3,0,0,0-2.92.21,4.42,4.42,0,0,0-1.6,3.73,11.1,11.1,0,0,0,2.82-.13C200.52,336,199.9,333.37,199.11,332.92Z" transform="translate(0 0)"/><path class="cls-48" d="M167.15,336.26a4,4,0,0,0-2.28-.35,3.1,3.1,0,0,0-2.47,3.61,3.39,3.39,0,0,0,.15.52,2.77,2.77,0,0,0,2.38,1.4c1.84.23,4-1.21,5.87-1.8A7.82,7.82,0,0,0,167.15,336.26Z" transform="translate(0 0)"/><path class="cls-48" d="M171.92,341a2.48,2.48,0,0,0-1.34,2,2.23,2.23,0,0,0,2.25,1.8c1,.05,4.81-1,6.42-.15C176.46,339.38,173.64,339.9,171.92,341Z" transform="translate(0 0)"/><path class="cls-48" d="M203.62,342.83a2.15,2.15,0,0,0-1.32,1.53,1.74,1.74,0,0,0,1.34,1.86c.76.2,3.68-.13,4.72.81C208.36,343,205.06,342.16,203.62,342.83Z" transform="translate(0 0)"/><path class="cls-48" d="M183.62,348c.86-.25,4.1-.53,5.44,1.2,2.45,3.17.35,5.9.08,6.87a20.63,20.63,0,0,1-5-1.41C178.81,352.15,180.71,348.44,183.62,348Z" transform="translate(0 0)"/><path class="cls-48" d="M171.88,348.56c-.78-.26-3.42-.22-4.52,1.46a7.94,7.94,0,0,0-.86,6.93,15.93,15.93,0,0,0,4.38-1.26C175.48,353.34,173.33,349.05,171.88,348.56Z" transform="translate(0 0)"/><path class="cls-48" d="M180.45,332.74a2.5,2.5,0,0,1,1.88,1.4,2,2,0,0,1-1.08,2.43c-.82.42-4.25.78-5.2,2.09C176.17,332.85,178.64,332.34,180.45,332.74Z" transform="translate(0 0)"/><g class="cls-49"><path class="cls-50" d="M162.39,338.41a17.06,17.06,0,0,1,8.31,1.45,0,0,0,0,0,0-.07,16.21,16.21,0,0,0-8.35-1.44s0,.07,0,.06Z" transform="translate(0 0)"/><path class="cls-50" d="M163.39,337.75a8.05,8.05,0,0,1,6.35.65,0,0,0,1,0,0-.06,7.36,7.36,0,0,0-6.41-.65s0,0,0,0,0,0,0,0Z" transform="translate(0 0)"/><path class="cls-50" d="M162.91,338.78c.9,2,4.16,1.71,5.87,1.26a.06.06,0,0,0,0-.11c-1.67.41-4.89.73-5.78-1.18a0,0,0,1,0-.06,0Z" transform="translate(0 0)"/><path class="cls-50" d="M171.39,341.77a5.76,5.76,0,0,1,7.31,2.49,0,0,0,0,0,0,0s0,0,0,0h0a5.67,5.67,0,0,0-7.39-2.51s0,0,0,0,0,0,0,0Z" transform="translate(0 0)"/><path class="cls-50" d="M171.74,342.14A22.62,22.62,0,0,1,178.3,344s0,0,0,0a19.1,19.1,0,0,0-6.58-1.86s0,.06,0,.07Z" transform="translate(0 0)"/><path class="cls-50" d="M171,342.75a12.07,12.07,0,0,0,7,1.59c.06,0,.06-.1,0-.09a13.11,13.11,0,0,1-7-1.54s0,0,0,0a0,0,0,0,0,0,0Z" transform="translate(0 0)"/><path class="cls-50" d="M176.26,338.41a13,13,0,0,1,5-4.7,0,0,0,0,0,0-.07,0,0,0,0,0-.07,0,11.43,11.43,0,0,0-5,4.76s0,0,0,0,0,0,0,0Z" transform="translate(0 0)"/><path class="cls-50" d="M178.4,337.4a7.46,7.46,0,0,0,3.91-3.47,0,0,0,0,0,0-.06,0,0,0,0,0,0,0,8.19,8.19,0,0,1-3.85,3.46s0,.07,0,.06Z" transform="translate(0 0)"/><path class="cls-50" d="M176.31,337a5.14,5.14,0,0,1,4.7-3.8s.05,0,0-.06,0,0,0,0a5.07,5.07,0,0,0-4.77,3.88,0,0,0,0,0,0,0,0,0,0,0,0,.05,0Z" transform="translate(0 0)"/><path class="cls-50" d="M195,336.93a9.89,9.89,0,0,1,3.71-3.47s0,0,0-.07a0,0,0,0,0-.07,0,8.3,8.3,0,0,0-3.72,3.53s0,0,0,0,0,0,.05,0Z" transform="translate(0 0)"/><path class="cls-50" d="M196.54,336.18a5.45,5.45,0,0,0,2.9-2.57,0,0,0,0,0-.08,0,6.14,6.14,0,0,1-2.84,2.56,0,0,0,1,0,0,.05Z" transform="translate(0 0)"/><path class="cls-50" d="M195,335.88a3.81,3.81,0,0,1,3.47-2.8.05.05,0,0,0,0-.06s0,0,0,0a3.72,3.72,0,0,0-3.54,2.88s0,0,0,0a.05.05,0,0,0,.05,0Z" transform="translate(0 0)"/><path class="cls-50" d="M166.77,356.45a24.13,24.13,0,0,1,6-7.4,0,0,0,0,0,0-.05h0a20,20,0,0,0-6,7.43s0,.07.05,0h0Z" transform="translate(0 0)"/><path class="cls-50" d="M166.46,356.56a7,7,0,0,1,5.57-7.91s0,0,0,0,0,0-.05,0a7,7,0,0,0-5.62,8c0,.05.09,0,.08,0Z" transform="translate(0 0)"/><path class="cls-50" d="M167.1,356.39a6.76,6.76,0,0,0,6.19-6.35,0,0,0,1,0-.07,0,6.85,6.85,0,0,1-6.12,6.27s0,.08,0,.08Z" transform="translate(0 0)"/><path class="cls-50" d="M182.46,348.68a9.89,9.89,0,0,1,5.61,6.83s0,0,0,0,0,0,0,0a9.61,9.61,0,0,0-5.64-6.86s-.06,0,0,.05Z" transform="translate(0 0)"/><path class="cls-50" d="M182.84,348.84c3.1.46,6.57,1.54,6.43,5.34a0,0,0,0,0,0,.05s0,0,0-.05c.3-3.84-3.4-5-6.5-5.41a0,0,0,0,0,0,.07Z" transform="translate(0 0)"/><path class="cls-50" d="M182.68,349.36c-.64,2.91,2.27,4.54,4.58,5.35,0,0,0,0,0,0s0,0,0,0c-2.15-1-5.16-2.34-4.54-5.28,0-.05-.05-.07-.06,0Z" transform="translate(0 0)"/><path class="cls-50" d="M184,339.91c.07,4.23,6.21,5.55,9.5,5.55a0,0,0,0,0,0,0,0,0,0,0,0,0,0c-3.28-.12-9.29-1.28-9.46-5.49,0,0,0,0,0,0s0,0,0,0Z" transform="translate(0 0)"/><path class="cls-50" d="M184.82,340.43a43.94,43.94,0,0,0,9.32,5c.05,0,.06-.06,0-.08a44.73,44.73,0,0,1-9.32-5s0,0,0,0Z" transform="translate(0 0)"/><path class="cls-50" d="M184.89,339.76a16,16,0,0,1,9.37,5.52c0,.05.11,0,.07-.07a15.28,15.28,0,0,0-9.42-5.5s-.06.05,0,.06h0Z" transform="translate(0 0)"/><path class="cls-50" d="M185.29,338.75c4.67-.27,8.66,1.49,9.18,6.62,0,0,0,0,0,0l0,0a6.78,6.78,0,0,0-2.5-5.19c-1.95-1.58-4.36-1.66-6.76-1.49,0,0,0,.06,0,.06h0Z" transform="translate(0 0)"/><path class="cls-50" d="M200.12,336.21c.34,3,4.83,3.6,7.21,3.4a0,0,0,0,0,0,0,0,0,0,0,0,0,0c-2.38.07-6.73-.34-7.17-3.35h0Z" transform="translate(0 0)"/><path class="cls-50" d="M200.74,336.53a31.92,31.92,0,0,0,7,3.05.05.05,0,0,0,.05,0s0,0,0,0a34.2,34.2,0,0,1-7-3h0a0,0,0,0,0,0,0Z" transform="translate(0 0)"/><path class="cls-50" d="M200.77,336.06a11.83,11.83,0,0,1,7.1,3.38,0,0,0,0,0,.07-.07,11.17,11.17,0,0,0-7.16-3.36s0,.05,0,.05h0Z" transform="translate(0 0)"/><path class="cls-50" d="M201,335.33c3.31-.42,6.32.54,7,4.16,0,0,0,0,0,0l0,0a4.67,4.67,0,0,0-2.09-3.54,6.88,6.88,0,0,0-5-.67s0,0,0,0l0,0Z" transform="translate(0 0)"/><path class="cls-50" d="M202.35,344.53a2.35,2.35,0,0,0,1.45,1.09c.62.16,1.26.08,1.89.19a7,7,0,0,1,2.57,1h0a6.92,6.92,0,0,0-3-1.13c-1.11-.14-2.28-.08-2.92-1.19h0a0,0,0,0,0,0,0Z" transform="translate(0 0)"/><path class="cls-50" d="M202.75,344a6.9,6.9,0,0,1,5.35,2.65h0a6.64,6.64,0,0,0-5.37-2.69s0,0,0,0a0,0,0,0,0,0,0Z" transform="translate(0 0)"/><path class="cls-50" d="M203.38,343.62a3.57,3.57,0,0,1,4.55,2.18,2.54,2.54,0,0,1,.1.37s0,0,0,0,0,0,0,0a3.57,3.57,0,0,0-4.25-2.73,2.9,2.9,0,0,0-.48.14,0,0,0,1,0,0,.05Z" transform="translate(0 0)"/></g><path class="cls-50" d="M163.93,342.23c-.74-.64-3.67-1.78-5.62-.42a10.68,10.68,0,0,0-4.42,7.54,20.93,20.93,0,0,0,5.75.28C165.76,349.1,165.31,343.41,163.93,342.23Z" transform="translate(0 0)"/><path class="cls-50" d="M197.89,335.84c-.63-.43-3-1.07-4.38.13a7.38,7.38,0,0,0-2.55,5.92,14.85,14.85,0,0,0,4.21,0C199.85,341,199.05,336.65,197.89,335.84Z" transform="translate(0 0)"/><path class="cls-50" d="M183.14,329.11a2.17,2.17,0,0,0-1.32,1.52,1.74,1.74,0,0,0,1.34,1.86c.76.2,3.68-.12,4.72.81C187.88,329.3,184.59,328.43,183.14,329.11Z" transform="translate(0 0)"/><path class="cls-50" d="M196.84,348.3c.69-.39,3.46-1.32,5-.15,2.89,2.12,1.69,4.84,1.68,5.7a19.7,19.7,0,0,1-4.73-.1C193.59,352.79,194.38,349.29,196.84,348.3Z" transform="translate(0 0)"/><path class="cls-48" d="M154.26,349.1a16.12,16.12,0,0,0,3.34-2.71,16.22,16.22,0,0,1,5.51-3.54,0,0,0,0,0,0-.09c-3.75,1.16-5.6,4.42-8.87,6.26a.07.07,0,0,0,0,.07,0,0,0,0,0,.07,0Z" transform="translate(0 0)"/><path class="cls-48" d="M154.26,348.7a39.67,39.67,0,0,1,2.9-4.24c1.58-1.76,3.46-2.18,5.75-2.1.08,0,.1-.14,0-.15-4.72-.74-6.59,3-8.71,6.46a0,0,0,0,0,0,0s0,0,0,0h0Z" transform="translate(0 0)"/><path class="cls-48" d="M155.44,349.31c3.55-.18,9.53-.92,8.54-5.93a.08.08,0,0,0-.09,0,.06.06,0,0,0,0,.06c0,1.55-.23,3.17-1.55,4.17-1.76,1.33-4.74,1.5-6.85,1.64a.05.05,0,0,0,0,.1Z" transform="translate(0 0)"/><path class="cls-48" d="M154.63,349.17c1.83-.6,3.77-1,5.54-1.74s2.48-2.29,3.35-3.89a0,0,0,0,0,0-.07.07.07,0,0,0-.07,0c-1.17,1.95-2.11,3.36-4.33,4.19-1.48.55-3,.9-4.5,1.4-.06,0,0,.11,0,.09Z" transform="translate(0 0)"/><path class="cls-48" d="M182.9,330.21a10,10,0,0,1,4.58,2.63s0,0,.05,0a0,0,0,0,0,0,0,8.67,8.67,0,0,0-4.61-2.63s0,0,0,0,0,0,0,0Z" transform="translate(0 0)"/><path class="cls-48" d="M182.23,330.72a1.47,1.47,0,0,0,1.13.9c1.08.36,2.17.7,3.27,1a0,0,0,0,0,.05,0,.05.05,0,0,0,0-.05c-.7-.25-1.4-.47-2.11-.68s-1.92-.38-2.22-1.16c0-.06-.12,0-.09,0Z" transform="translate(0 0)"/><path class="cls-48" d="M182.93,329.9a4.29,4.29,0,0,1,4.73,2.73s.08,0,.07,0a4.15,4.15,0,0,0-4.83-2.8c-.06,0,0,.11,0,.1h0Z" transform="translate(0 0)"/><path class="cls-48" d="M191.46,341.73c2.14-1.42,4.19-3,6.23-4.55,0,0,0,0,0,0h0c-2.19,1.33-4.11,3.09-6.23,4.54,0,0,0,.06,0,0Z" transform="translate(0 0)"/><path class="cls-48" d="M192,341.65c2.36-.36,5-1.83,6-4.15,0,0,0,0,0,0l0,0a8,8,0,0,1-5.94,4.14s0,0,0,0Z" transform="translate(0 0)"/><path class="cls-48" d="M191.36,341.43a9.34,9.34,0,0,1,5.67-4.68s0,0,0,0l0,0a8.86,8.86,0,0,0-5.73,4.7,0,0,0,0,0,0,.06s0,0,.05,0Z" transform="translate(0 0)"/><path class="cls-48" d="M192.48,341.74a7.69,7.69,0,0,0,4.67-1.17,2.26,2.26,0,0,0,1-2.74s-.07,0-.06,0c1,3.13-3.59,3.78-5.62,3.83l0,0s0,0,0,0Z" transform="translate(0 0)"/><path class="cls-48" d="M191.17,341c.69-2.78,2.49-5,5.61-4.84.06,0,.06-.09,0-.1-3.13-.35-5.05,2.16-5.68,4.92,0,0,0,0,0,0l0,0Z" transform="translate(0 0)"/><path class="cls-48" d="M197.61,348.6a24.74,24.74,0,0,1,5.62,5s.06,0,0,0a22.78,22.78,0,0,0-5.64-5,0,0,0,0,0,0,0,0,0,0,0,0,0,0Z" transform="translate(0 0)"/><path class="cls-48" d="M197.86,348.43a6.69,6.69,0,0,1,5.51,4.89,0,0,0,0,0,0,0s0,0,0,0h0a6.53,6.53,0,0,0-5.56-4.91s0,0,0,0Z" transform="translate(0 0)"/><path class="cls-48" d="M198.41,348.27a5,5,0,0,1,3.81,1.1,4.06,4.06,0,0,1,1.15,3.22,0,0,0,0,0,0,0s0,0,0,0a3.9,3.9,0,0,0-1.16-3.28,4.92,4.92,0,0,0-3.87-1.08s0,0,0,0Z" transform="translate(0 0)"/><path class="cls-48" d="M197.41,348.63c-1.61,2.29,4.16,4.71,5.64,5a0,0,0,0,0,0,0s0,0,0,0c-1.4-.39-7.07-2.65-5.61-4.93,0,0,0,0-.05,0Z" transform="translate(0 0)"/><path class="cls-48" d="M196.76,348.85a1.86,1.86,0,0,0-.47,2.57,2,2,0,0,0,.27.31c1.24,1.43,3.6,1.94,5.41,1.93a0,0,0,0,0,.05,0,0,0,0,0,0-.05-.05,10.16,10.16,0,0,1-3.27-.64c-1.36-.53-4.2-2.51-1.91-4,0,0,0,0,0,0Z" transform="translate(0 0)"/><rect class="cls-51" x="103.82" y="378.91" width="10.03" height="197.2"/><rect class="cls-51" x="516.41" y="378.91" width="10.03" height="197.2"/><rect class="cls-51" x="83.48" y="373.17" width="463.29" height="8.7"/><rect class="cls-7" x="78.62" y="371.43" width="473.01" height="3.9"/><rect class="cls-38" x="160.8" y="369.42" width="99.99" height="2.01"/><path class="cls-37" d="M256.57,366.82s-39.53-2.34-45.34,1.74c-8-3.64-46.21-1.74-46.21-1.74v2.6h91.55Z" transform="translate(0 0)"/><path class="cls-39" d="M256.57,368.56q-5.69-.45-11.38-.75c-3.8-.21-7.6-.4-11.4-.5s-7.6-.14-11.4,0c-1.9.07-3.79.19-5.67.41-.94.11-1.87.27-2.79.47a8,8,0,0,0-2.58,1l-.1.07-.11-.05a13.87,13.87,0,0,0-2.74-.8c-.94-.19-1.89-.32-2.84-.44-1.92-.21-3.85-.33-5.78-.41-3.86-.16-7.72-.14-11.59-.07s-7.73.23-11.59.43-7.72.4-11.58.66c7.7-.69,15.43-1.18,23.17-1.38,3.86-.1,7.74-.14,11.61,0,1.93.07,3.87.18,5.8.38,1,.11,1.93.24,2.88.42a14.56,14.56,0,0,1,2.83.82l-.21,0a8.63,8.63,0,0,1,2.74-1,26.88,26.88,0,0,1,2.83-.45c1.9-.22,3.8-.33,5.71-.39,3.81-.11,7.61-.05,11.41.08C241.41,367.27,249,367.81,256.57,368.56Z" transform="translate(0 0)"/><path class="cls-39" d="M256.57,368.56c-3.78-.11-7.57-.18-11.35-.24s-7.57-.13-11.35-.16-7.56,0-11.34.07c-1.89,0-3.78.11-5.67.22-.94.06-1.88.13-2.82.23a14.91,14.91,0,0,0-2.73.5l-.06,0h-.06a22.49,22.49,0,0,0-2.82-.3c-1-.06-1.91-.1-2.87-.13-1.91-.07-3.82-.1-5.74-.12-3.83,0-7.66,0-11.49,0l-23,.33,11.48-.39,11.49-.23c3.83-.05,7.66-.1,11.5-.08,1.91,0,3.83,0,5.74.08,1,0,1.92.05,2.88.11a23.4,23.4,0,0,1,2.89.3h-.12a14.45,14.45,0,0,1,2.84-.5c.95-.1,1.89-.16,2.84-.21,1.89-.1,3.78-.16,5.68-.19,3.78-.06,7.57,0,11.35,0s7.57.13,11.36.23S252.79,368.39,256.57,368.56Z" transform="translate(0 0)"/><rect class="cls-38" x="304.08" y="369.42" width="99.99" height="2.01"/><path class="cls-37" d="M399.84,366.82s-39.52-2.34-45.33,1.74c-8-3.64-46.21-1.74-46.21-1.74v2.6h91.54v-2.6Z" transform="translate(0 0)"/><path class="cls-39" d="M399.84,368.56q-5.68-.45-11.38-.75c-3.79-.21-7.59-.4-11.39-.5s-7.6-.14-11.4,0c-1.9.07-3.79.19-5.67.41-.94.11-1.87.27-2.79.47a8,8,0,0,0-2.58,1l-.1.07-.12-.05a13.58,13.58,0,0,0-2.73-.8c-.94-.19-1.89-.32-2.85-.44-1.91-.21-3.84-.33-5.77-.41-3.86-.16-7.73-.14-11.59-.07s-7.73.23-11.59.43-7.73.4-11.59.66c7.71-.69,15.44-1.18,23.17-1.38,3.87-.1,7.74-.14,11.61,0,1.94.07,3.88.18,5.8.38,1,.11,1.93.24,2.89.42a14.56,14.56,0,0,1,2.83.82l-.21,0a8.58,8.58,0,0,1,2.73-1,27.49,27.49,0,0,1,2.84-.45c1.9-.22,3.8-.33,5.7-.39,3.81-.11,7.62-.05,11.42.08C384.68,367.27,392.27,367.81,399.84,368.56Z" transform="translate(0 0)"/><path class="cls-39" d="M399.84,368.56c-3.78-.11-7.56-.18-11.34-.24s-7.57-.13-11.35-.16-7.57,0-11.35.07c-1.89,0-3.78.11-5.66.22-.95.06-1.89.13-2.82.23a14.86,14.86,0,0,0-2.74.5l-.06,0h-.06a22.1,22.1,0,0,0-2.82-.3c-.95-.06-1.91-.1-2.86-.13-1.91-.07-3.83-.1-5.74-.12-3.83,0-7.66,0-11.49,0l-23,.33,11.49-.39,11.49-.23c3.83-.06,7.66-.1,11.49-.09,1.92,0,3.83,0,5.75.08,1,0,1.92.06,2.88.12a20.09,20.09,0,0,1,2.89.3h-.12a14.32,14.32,0,0,1,2.84-.5c.94-.1,1.89-.16,2.84-.21,1.89-.1,3.78-.15,5.68-.19,3.78-.06,7.57,0,11.35,0s7.57.13,11.35.24S396.06,368.39,399.84,368.56Z" transform="translate(0 0)"/><polygon class="cls-12" points="452.19 540.29 453.85 550.27 461.46 550.27 464.74 549.71 462.34 534.2 452.19 540.29"/><path id="_Path_16" data-name=" Path 16" class="cls-52" d="M463.38,537.43c-.73.33-1.5.63-2.3.9a64.08,64.08,0,0,1-9.86,2.19c-9.1-14.93-32.72-87.66-32.72-87.66-2.17-9.18,11.63,2.58,17.37,2.23a12.14,12.14,0,0,1,5.3.77c5.49,2.32,13.54,17.85,13.54,17.85s2.45,5.37,5,16.46S463.38,537.43,463.38,537.43Z" transform="translate(0 0)"/><path id="_Path_17" data-name=" Path 17" class="cls-53" d="M463.38,537.43c-.73.33-1.5.63-2.3.9-.57-4.42-1.43-11.48-2.69-22.73-2.81-25.21-18.79-54.07-22.52-60.51a12.07,12.07,0,0,1,5.29.77c5.49,2.32,13.55,17.85,13.55,17.85s2.45,5.37,5,16.46S463.38,537.43,463.38,537.43Z" transform="translate(0 0)"/><path id="_Path_18" data-name=" Path 18" class="cls-52" d="M453.36,548.81a18.28,18.28,0,0,0,5.82-.89,13.94,13.94,0,0,0,4.9-3.1s8.07,4.93,8.06,13.79a1.11,1.11,0,0,1-.74,1s-19.37,8.61-26,11a98.63,98.63,0,0,1-10.69,2.76.92.92,0,0,1-1.14-.51c-.35-.9-.52-2.47,1.45-4,3-2.3,6.29-4.18,8.57-6.09s4.61-7.17,6.45-8.67A12.2,12.2,0,0,0,453.36,548.81Z" transform="translate(0 0)"/><g class="cls-54"><path class="cls-8" d="M493.48,592.85l2.83-151.23H486.25l2.83,151.23c0,1.53,1,2.77,2.2,2.77S493.45,594.38,493.48,592.85Z" transform="translate(0 0)"/><path class="cls-8" d="M401,575.16l58.43-139.52-9.35-3.71-53.17,141.6c-.54,1.44-.08,3,1,3.39S400.43,576.57,401,575.16Z" transform="translate(0 0)"/><path class="cls-8" d="M581.53,575.16,523.11,435.64l9.35-3.71,53.17,141.6c.53,1.44.07,3-1,3.39S582.13,576.57,581.53,575.16Z" transform="translate(0 0)"/><g class="cls-9"><path d="M448.48,436.25l5.95,2.36-54.92,138.2a3.22,3.22,0,0,0,1.52-1.65l58.43-139.52-9.35-3.71Z" transform="translate(0 0)"/><path d="M486.33,445.6h7.5l-2.81,150,.27,0c1.18,0,2.16-1.24,2.2-2.77l2.83-151.23H486.25Z" transform="translate(0 0)"/><path d="M585.63,573.53l-53.17-141.6-9.35,3.71,1.07,2.57,5.79-2.3L582.83,576.7a2,2,0,0,0,1.78.22C585.7,576.49,586.16,575,585.63,573.53Z" transform="translate(0 0)"/></g></g><path id="_Path_19" data-name=" Path 19" class="cls-3" d="M420.42,364.9H328l-18.3-57.54A4.52,4.52,0,0,1,314,301.5h83a4.49,4.49,0,0,1,4.28,3.14Z" transform="translate(0 0)"/><path id="_Path_20" data-name=" Path 20" class="cls-55" d="M418.92,364.9H330.41l-18.13-56.48a4.41,4.41,0,0,1,2.88-5.54,4.19,4.19,0,0,1,1.36-.2H395.7a4.44,4.44,0,0,1,4.24,3.07Z" transform="translate(0 0)"/><path id="_Path_21" data-name=" Path 21" class="cls-56" d="M363.39,313.35H323.06a1.09,1.09,0,0,1-1.09-1.09h0a1.09,1.09,0,0,1,1.09-1.09h40.33a1.08,1.08,0,0,1,1.08,1.09h0A1.08,1.08,0,0,1,363.39,313.35Z" transform="translate(0 0)"/><path id="_Path_22" data-name=" Path 22" class="cls-56" d="M369.64,318.38h-45a1.09,1.09,0,0,1-1.09-1.09h0a1.09,1.09,0,0,1,1.09-1.09h45a1.08,1.08,0,0,1,1.08,1.09h0a1.08,1.08,0,0,1-1.08,1.09Z" transform="translate(0 0)"/><path id="_Path_23" data-name=" Path 23" class="cls-56" d="M365.47,323.41H326.3a1.09,1.09,0,0,1-1.09-1.09h0a1.09,1.09,0,0,1,1.09-1.09h39.17a1.09,1.09,0,0,1,1.09,1.09h0A1.09,1.09,0,0,1,365.47,323.41Z" transform="translate(0 0)"/><path id="_Path_24" data-name=" Path 24" class="cls-56" d="M358.94,328.44h-31a1.09,1.09,0,0,1-1.09-1.09h0a1.09,1.09,0,0,1,1.09-1.09h31a1.09,1.09,0,0,1,1.09,1.09h0a1.09,1.09,0,0,1-1.09,1.09Z" transform="translate(0 0)"/><path id="_Path_25" data-name=" Path 25" class="cls-56" d="M374.51,333.47h-45a1.09,1.09,0,0,1-1.09-1.09h0a1.09,1.09,0,0,1,1.09-1.09h45a1.09,1.09,0,0,1,1.09,1.09h0a1.1,1.1,0,0,1-1.09,1.09Z" transform="translate(0 0)"/><path id="_Path_26" data-name=" Path 26" class="cls-56" d="M370.32,338.5H331.15a1.09,1.09,0,0,1-1.09-1.09h0a1.09,1.09,0,0,1,1.09-1.09h39.17a1.09,1.09,0,0,1,1.09,1.09h0a1.09,1.09,0,0,1-1.09,1.09Z" transform="translate(0 0)"/><path id="_Path_27" data-name=" Path 27" class="cls-56" d="M379.33,348.55h-45a1.09,1.09,0,0,1-1.09-1.09h0a1.08,1.08,0,0,1,1.09-1.08h45a1.08,1.08,0,0,1,1.09,1.08h0A1.09,1.09,0,0,1,379.33,348.55Z" transform="translate(0 0)"/><path id="_Path_28" data-name=" Path 28" class="cls-56" d="M381,353.58H336a1.09,1.09,0,0,1-1.09-1.09h0A1.09,1.09,0,0,1,336,351.4h45a1.09,1.09,0,0,1,1.09,1.09h0a1.08,1.08,0,0,1-1.09,1.08Z" transform="translate(0 0)"/><path id="_Path_29" data-name=" Path 29" class="cls-56" d="M404.88,353.58H390.36a3.11,3.11,0,0,1-3-2.17l-12.11-38.32a3.1,3.1,0,0,1,2-3.9,3.29,3.29,0,0,1,.94-.14h14.53a3.08,3.08,0,0,1,3,2.17l12.11,38.32a3.11,3.11,0,0,1-2,3.9A3.41,3.41,0,0,1,404.88,353.58Z" transform="translate(0 0)"/><path id="_Path_30" data-name=" Path 30" class="cls-3" d="M428.17,369.08H327.63a3,3,0,0,1-3-3h0a3,3,0,0,1,3-3H428.17a3,3,0,0,1,3,3h0A3,3,0,0,1,428.17,369.08Z" transform="translate(0 0)"/><g id="_Group_" data-name=" Group "><path id="_Compound_Path_" data-name=" Compound Path " class="cls-52" d="M457.19,289.59a2.57,2.57,0,0,1-2.2-1.27l-3.34-5.88a2.51,2.51,0,0,1,.94-3.43l.07,0,9.31-4.92a2.52,2.52,0,0,1,3.38,1l3.18,5.83a2.52,2.52,0,0,1-1,3.42h0l-9.14,5A2.45,2.45,0,0,1,457.19,289.59Zm5.95-14.67a1.28,1.28,0,0,0-.63.16l-9.3,4.91a1.35,1.35,0,0,0-.57,1.83l0,0h0l3.35,5.88a1.35,1.35,0,0,0,1.82.52l9.14-5a1.35,1.35,0,0,0,.54-1.84l-3.17-5.83A1.36,1.36,0,0,0,463.14,274.92Z" transform="translate(0 0)"/></g><path id="_Path_31" data-name=" Path 31" class="cls-12" d="M419,350.4c-.37.47-.76.93-1.17,1.37,0,0-4.88-3.7-6.23-4s-4.25.73-5.9.82-1.79-.88-1.79-.88-6.29,2.62-7.3,2.87-1.7-.1-1.07-1.7a6.92,6.92,0,0,1,1.16-1.58h0c2.14-2.42,6.56-6.3,8.15-7.07,2-1,4.8-2.36,7-1.54s9.44,6.23,9.44,6.23C421.57,346.73,420.13,349,419,350.4Z" transform="translate(0 0)"/><path id="_Path_32" data-name=" Path 32" class="cls-57" d="M420.54,345.2l-1.5,5.2c-.37.47-.76.93-1.17,1.37,0,0-4.88-3.7-6.24-4s-4.24.73-5.9.82-1.78-.88-1.78-.88-6.29,2.62-7.3,2.87-1.7-.1-1.07-1.7a6.92,6.92,0,0,1,1.16-1.58c-.53.74-1.12,1.5-.77,2.44.42,1.15,7.17-2.07,12-5,.08-.05.47-.24.6,0a.69.69,0,0,1-.27.55c-.81.87-4.9,1.18-4.07,2.48,1.17,1.84,5.36-1.53,7.66-.77a23.68,23.68,0,0,1,5.17,2.85S418.44,345.87,420.54,345.2Z" transform="translate(0 0)"/><path id="_Path_33" data-name=" Path 33" class="cls-58" d="M417.13,351.77s23.91,20.91,41.8,23S507,343,507,343s-1.9-18.09-13.05-16-26.11,29-32.59,30.27-40.17-13-40.17-13a8.77,8.77,0,0,0-2.09,2.56A23,23,0,0,0,417.13,351.77Z" transform="translate(0 0)"/><path id="_Path_34" data-name=" Path 34" class="cls-12" d="M498.48,248.7c-6.54-7.49-16.21-8.3-23.68-7.47a24.73,24.73,0,0,0-21.15,17.14,22,22,0,0,0,.44,14.12c6.1,16.83,12.48,27.56,18.43,30.75,2.27,1.22,6.61.41,11.24-1.22a1.32,1.32,0,0,1,1.6.61l1.95,3.66,17.22-3.72a58,58,0,0,1-3.39-9.83C503.64,289.58,510.46,262.4,498.48,248.7Z" transform="translate(0 0)"/><path id="_Path_35" data-name=" Path 35" class="cls-27" d="M463.69,272.71a4.92,4.92,0,0,1,5,2.94c1.42,3.36,3.6,8.07,5.32,9.61a1.77,1.77,0,0,0,1.89,0,1.49,1.49,0,0,0,.87-1.47,40.09,40.09,0,0,0-2-6.71,4.51,4.51,0,0,1,2.34-5.94,4.36,4.36,0,0,1,1.05-.31,7.53,7.53,0,0,1,2.8.17c5.09,1.54,1.58,9.52,1.48,13.69-.07,2.94,3.45,9.75,5,10.36,5.11,2,12.86.2,17-4.88s5-22.05,2.76-32.2-10.37-15.89-13.06-16.54a9.46,9.46,0,0,0-3.18-.25,3,3,0,0,1-2.24-.74c-2.71-2.35-10.79-7.73-23.58-2.21a29.64,29.64,0,0,0-18.35,28.29c.19,4.34,3.59,4,6,3.26a3.93,3.93,0,0,1,3.75.81A9.53,9.53,0,0,0,463.69,272.71Z" transform="translate(0 0)"/><path id="_Path_36" data-name=" Path 36" class="cls-59" d="M486.78,309.05s-1.48-1.65-.92-2.66c.7-1.25,8.25-7.23,17.07-6.92,1.37,0,3.05,0,4.69,3.63a25.5,25.5,0,0,1,2,5.95Z" transform="translate(0 0)"/><path id="_Path_37" data-name=" Path 37" class="cls-59" d="M520.34,453.65c-.53.13-1.11.26-1.72.37-7.48,1.4-19.66,1.56-19.66,1.56-24-.43-36.13-22.79-40-29.46a25.24,25.24,0,0,1-1.91-3.91c1.37-.73,17.67-9.52,16.8-39.54-.18-6.22-.09-20.15-3.19-25.55-1.71-3-6.76-9-9.92-15.35-2.6-5.22-3.95-10.66-1.1-14.82,7.05-10.36,18.18-15.87,18.18-15.87s20.43-8.18,37.82-6.33c11,1.16,20.87,6.36,23.49,20.25C545.87,360.78,520.34,453.65,520.34,453.65Z" transform="translate(0 0)"/><path id="_Path_38" data-name=" Path 38" class="cls-60" d="M480.49,374.81c3,29.53-17.13,48.13-21.56,51.31a25.24,25.24,0,0,1-1.91-3.91c1.37-.73,16.7-14,16.8-39.54,0-6.22-.09-20.15-3.19-25.55-1.71-3-6.76-9-9.92-15.35l1.34-.52,8.19-1.36,4.16,3.39S478.57,355.68,480.49,374.81Z" transform="translate(0 0)"/><path id="_Path_39" data-name=" Path 39" class="cls-61" d="M520.34,453.65c-.53.13-1.11.26-1.72.37,1.53-8.06,11.23-58.71,14.39-77.08,6.23-36.27-.26-54.64-3.91-61.22-3-5.32-8.65-8.14-13.49-11,11,1.16,20.87,6.36,23.49,20.25C545.87,360.78,520.34,453.65,520.34,453.65Z" transform="translate(0 0)"/><path id="_Path_40" data-name=" Path 40" class="cls-12" d="M402.59,561.87a15.92,15.92,0,0,1-5.71,1.1c-3.52,0-4.55-1.32-4.55-1.32v-8l11.61-1.5Z" transform="translate(0 0)"/><path id="_Path_41" data-name=" Path 41" class="cls-62" d="M493.8,449.49c-.07,5.22-1.46,13.55-9.29,15.91-11.68,3.5-20.31,1.51-33.85-.83-11.34-1.94-41.22-8.38-46.71-10.46a1,1,0,0,0-1.23.54,1,1,0,0,0,0,.54c2.59,12.66,4.66,18.13,6.34,37.13,1.41,16-4.72,61.14-4.72,61.14a31.94,31.94,0,0,1-3.87.9,15.15,15.15,0,0,1-2.23.2,50.26,50.26,0,0,1-6.48-.54s-12.11-66.54-13.75-93.5.94-29.19,13.19-34.9,67-3.6,67-3.6h0c.15.48,3.24,8.89,12.33,16.51A51.9,51.9,0,0,0,493.8,449.49Z" transform="translate(0 0)"/><path class="cls-63" d="M460.48,426.67a31.74,31.74,0,0,1-2.27-4.65h0l-1.74-.06A47.69,47.69,0,0,0,460.48,426.67Z" transform="translate(0 0)"/><path class="cls-63" d="M486.25,447.39c-1.1,3.95-3.47,7.81-8.4,9.29-11.68,3.5-20.31,1.51-33.85-.82-11.35-1.95-41.22-8.38-46.71-10.47a1,1,0,0,0-1.23.54.91.91,0,0,0-.05.54c2.59,12.66,4.66,18.13,6.34,37.13,1.1,12.43.63,52.95.37,70.28.92-.22,1.58-.42,1.58-.42s6.13-45.18,4.72-61.14c-1.68-19-3.75-24.47-6.34-37.13a.94.94,0,0,1,1.27-1.08c5.49,2.08,35.37,8.51,46.71,10.46,13.55,2.34,22.17,4.33,33.85.83,7.83-2.36,9.22-10.69,9.29-15.91A57.83,57.83,0,0,1,486.25,447.39Z" transform="translate(0 0)"/><path id="_Path_42" data-name=" Path 42" class="cls-52" d="M392.13,560.53a18.68,18.68,0,0,0,5.77,1.2,14,14,0,0,0,5.67-1.2s5.85,7.44,2.74,15.74a1.14,1.14,0,0,1-1.05.72H366.05a.89.89,0,0,1-.89-.85c0-1,.38-2.51,2.76-3.24,3.62-1.11,7.35-1.72,10.15-2.71s6.82-5.11,9.08-5.87A12.16,12.16,0,0,0,392.13,560.53Z" transform="translate(0 0)"/><path id="_Path_43" data-name=" Path 43" class="cls-12" d="M374.35,364s-3.49-.92-5.3-1.29c-.64-.12-1.29-.22-1.94-.28a10.42,10.42,0,0,0-2.3.07l-18.74,2.6a1,1,0,0,1-1.12-.86,2.19,2.19,0,0,1,.73-1.94l1.83-1.57L353,356c2.71-2.33,4.86-2.75,8.44-2.93a32,32,0,0,1,3.87.78c3.67.68,4.51,1.1,6.95,1.6a15.91,15.91,0,0,0,2.05.33,1.89,1.89,0,0,0,.82,0A11.38,11.38,0,0,1,374.35,364Z" transform="translate(0 0)"/><path id="_Path_44" data-name=" Path 44" class="cls-13" d="M403,365.89a.11.11,0,0,1-.12,0c-.48-.2-3.41-1.4-5-2-.59-.21-1.14-.36-1.62-.48a13,13,0,0,0-2.56-.31H374.86a1.07,1.07,0,0,1-1.09-1,2.15,2.15,0,0,1,1-1.78l2-1.31c-1.92,1.46-2.23,2.56-1.27,2.67.77.1,2.59-.11,7.21-1.39.1,0,.15.13.06.19a1,1,0,0,0,.64,1.95c.77,0,4.07-.24,4.83-.29,2.95-.16,7.25-.44,8.08-.3a14.09,14.09,0,0,1,4.13,1.44c.81.42,1.58-.5,1.87-1.37a35.81,35.81,0,0,1,1.66-4.12,2.07,2.07,0,0,0,.82.08A11.5,11.5,0,0,1,403,365.89Z" transform="translate(0 0)"/><path id="_Path_45" data-name=" Path 45" class="cls-59" d="M477,320.73c-2.48-1.51-10-5.68-19.65,9.4s-17.41,26.4-20.79,28.43-11.7.58-14.7.58S375,355.72,375,355.72a30.72,30.72,0,0,0-2.46,8.45s40.21,10.54,65.14,10.64,43.88-37.62,44.75-42.17S483,324.35,477,320.73Z" transform="translate(0 0)"/><g id="_Group_2" data-name=" Group 2"><path id="_Path_46" data-name=" Path 46" class="cls-52" d="M453,285.61a.57.57,0,0,1-.58-.57.56.56,0,0,1,.32-.53l21.62-11.08c2.45-1.26,7.46-3.82,11.18,1.63a.58.58,0,0,1-1,.66c-2.9-4.26-6.36-3-9.65-1.28l-21.66,11.1A.6.6,0,0,1,453,285.61Z" transform="translate(0 0)"/></g><path id="_Path_47" data-name=" Path 47" class="cls-12" d="M474.69,274.81l2.61,8.34a2.64,2.64,0,0,0,3.75,0,1.61,1.61,0,0,0,.24-.28c2-2.25,3.66-10.08.07-11.38S475.6,272,474.69,274.81Z" transform="translate(0 0)"/><path class="cls-10" d="M573,395.6c0-42.12-1-71.8-27.68-76.27-36.3-6.07-64.7,25.36-58.88,85.58,3.33,34.51-10.82,46.35-22.87,53.09-7.8,4.36-22.88,3.43-22.88,3.43s-7-.83-11.67-1.27c2.9,1.33,65.05,32,109.4,9.33C577.72,449.43,573,420.38,573,395.6Z" transform="translate(0 0)"/><path class="cls-11" d="M573,395.6c0-42.12-1-71.8-27.68-76.27-1.28-.21-2.55-.37-3.81-.5-29.09,2.88-48.14,33.51-43.07,86.1,3.33,34.51-10.82,46.35-22.87,53.09-7.79,4.36-22.88,3.43-22.88,3.43l-1-.31a74.8,74.8,0,0,1-11,.29s-7-.83-11.67-1.27c2.9,1.34,65.06,32,109.41,9.34C577.72,449.43,573,420.38,573,395.6Z" transform="translate(0 0)"/></g><path class="cls-4" d="M305,198.07c-11-4.58-57.6-29.54-58.35-122.72,0-2.23.34-2.2,2.42-2.08,8.6.5,38.16.11,56.75-26.3a1.62,1.62,0,0,1,2.91,0c18.54,26.38,48,26.84,56.7,26.35a2.22,2.22,0,0,1,2.49,2.23c-.8,93-47.33,118-58.32,122.55-2.14.9-2.48.89-4.6,0Z" transform="translate(0 0)"/><path class="cls-4" d="M305,198.07c-.62-.26-1.35-.58-2.17-1,14-6.51,55.31-32.91,56.06-117.93A2.21,2.21,0,0,0,356.42,77c-8.51.47-36.88,0-55.48-23.92a63.56,63.56,0,0,0,4.9-6.11,1.62,1.62,0,0,1,2.91,0c18.54,26.38,48,26.84,56.7,26.35a2.22,2.22,0,0,1,2.49,2.23c-.8,93-47.33,118-58.32,122.55-2.14.9-2.48.89-4.6,0Z" transform="translate(0 0)"/><path class="cls-64" d="M311.79,185.53A72.66,72.66,0,0,0,330,169.72c18.94-22.58,25.9-54.16,27.39-83.58a2.32,2.32,0,0,0-2.43-2.8,88.36,88.36,0,0,1-11.6-1.83A71.62,71.62,0,0,1,309.11,63.1c-1.47-1.44-2.08-1.49-3.58,0a71.51,71.51,0,0,1-34.28,18.44,86.78,86.78,0,0,1-11.62,1.83,2.3,2.3,0,0,0-2.41,2.73c1.46,29.09,8.26,60.24,26.68,82.79A74.08,74.08,0,0,0,302,185.06c5.16,3.17,4.65,3.51,9.76.47Z" transform="translate(0 0)"/><path class="cls-65" d="M311.79,185.53A72.66,72.66,0,0,0,330,169.72c18.94-22.58,25.9-54.16,27.39-83.58a2.32,2.32,0,0,0-2.43-2.8,88.36,88.36,0,0,1-11.6-1.83A71.62,71.62,0,0,1,309.11,63.1c-1.47-1.44-2.08-1.49-3.58,0s-3,2.77-4.52,4A72.43,72.43,0,0,0,334.33,84.2,88.11,88.11,0,0,0,345.93,86c1.78.16,2.51,1,2.43,2.73-1.5,28.68-8.44,59.47-27.39,81.48a72.61,72.61,0,0,1-18.14,15.37C307.15,188.25,307,188.41,311.79,185.53Z" transform="translate(0 0)"/><path class="cls-66" d="M288.66,151.07c-10.59-10.82-12.61-24.08-6.18-37.84.41-.89,2.54-5.69,3.44-5.6.64.07,1.56,2.27,1.94,2.89.5.8,4.26,6.54,5.09,5.93.45-.33.25-2.25.27-2.85a41.69,41.69,0,0,1,1-7.36,36.18,36.18,0,0,1,3.6-9.68,25.76,25.76,0,0,1,12.82-11.5c.51-.22,3.08-1.54,3.27-.56.1.52-.68,2-.9,2.57a26.84,26.84,0,0,0-1.47,8.84,13.15,13.15,0,0,0,3.25,8.82A18.11,18.11,0,0,1,319,120.21c-.53,3.29,1,1.46,2.11.08a21.14,21.14,0,0,0,4.31-7.93,13.44,13.44,0,0,0,.55-4.27c0-2.68.59-2.33,1.88-.38a44.38,44.38,0,0,1,7,15.09c2.71,11.56-.41,22.16-9.75,30a30.6,30.6,0,0,1-8,4.83c-3.17,1.29-6.55,1-10,1-2.92,0-5.47.63-7.79-.18-4-1.36-7.3-3.84-10.69-7.29Z" transform="translate(0 0)"/><path class="cls-67" d="M303.25,89.74a27.27,27.27,0,0,1,7.43-4.68c.51-.22,3.08-1.54,3.27-.56.11.52-.68,2-.9,2.57a26.84,26.84,0,0,0-1.47,8.84,13.15,13.15,0,0,0,3.25,8.82A18.11,18.11,0,0,1,319,120.21c-.18,1.07-.12,1.6,0,1.78a3.23,3.23,0,0,1-1.76,1.06c-1.67.56-5.19-.77-4.75-3.79.87-5.92-2.91-9.93-6.78-14.53a13.21,13.21,0,0,1-3.26-8.82,26.45,26.45,0,0,1,.71-6.17Zm20.52,26.76a19.25,19.25,0,0,0,1.69-4.14,13.44,13.44,0,0,0,.55-4.27c0-2.68.59-2.33,1.88-.38a44.38,44.38,0,0,1,7,15.09c2.71,11.56-.41,22.16-9.75,30a30.6,30.6,0,0,1-8,4.83c-4.61,1.88-9.42,1.92-14.32,1a27.57,27.57,0,0,0,13.29-5.87c.52-.43,1-.88,1.51-1.33,8.16-7.65,10.8-17.7,8.23-28.62a38.11,38.11,0,0,0-2.05-6.3Z" transform="translate(0 0)"/><path class="cls-68" d="M317.11,157.58a26.48,26.48,0,0,1-10,2,23.58,23.58,0,0,1-7.79-1.22,20.32,20.32,0,0,1-2.38-7.67c-.76-10.71,3.62-18.23,13.95-21.75.55-.18,2.21-.78,2.05.35-.08.58-.56,1.57-.72,2.26-1,3.9-1,8.77,1.72,12,3.47,3.94,4.6,10,3.14,14.05Z" transform="translate(0 0)"/><path class="cls-69" d="M317.11,157.58a26.66,26.66,0,0,1-9,2c1.35-4.37.2-10.73-3.21-14.89-2.4-3-2.69-7.37-2.06-11.21a23,23,0,0,1,8-4.52c.55-.18,2.21-.78,2.05.35-.08.58-.55,1.57-.72,2.26-1,3.9-1,8.77,1.72,12,3.47,3.94,4.6,10,3.14,14.05Z" transform="translate(0 0)"/></svg>