<?xml version="1.0"?>
<svg xmlns="http://www.w3.org/2000/svg" xmlns:xlink="http://www.w3.org/1999/xlink" xmlns:svgjs="http://svgjs.com/svgjs" version="1.1" width="512" height="512" x="0" y="0" viewBox="0 0 512 512" style="enable-background:new 0 0 512 512" xml:space="preserve" class=""><g>
<g xmlns="http://www.w3.org/2000/svg">
	<g>
		<path d="M457.987,31.531c-2.688-6.997-13.013-8.533-17.749-3.499c-21.44,18.88-48.939,29.248-77.547,29.248    c-39.424,0-75.989-19.627-97.771-52.501C262.937,1.792,259.609,0,256.025,0c-3.563,0-6.912,1.792-8.875,4.757    c-21.845,32.875-58.411,52.501-97.835,52.501c-28.928,0-56.704-10.603-78.208-29.867c-3.136-2.816-7.616-3.499-11.477-1.792    c-3.84,1.707-6.315,5.525-6.315,9.728v231.317c0,133.205,189.44,239.552,197.504,244.011c1.6,0.896,3.392,1.344,5.163,1.344    c1.771,0,3.563-0.448,5.163-1.301c8.064-4.459,197.504-110.827,197.504-244.011v-230.4    C458.777,34.688,458.563,33.067,457.987,31.531z M437.315,266.667c0,109.163-151.232,204.459-181.333,222.336    C225.859,471.125,74.649,375.936,74.649,266.667V56.811c22.165,14.165,48,21.803,74.667,21.803    c41.579,0,80.469-18.496,106.667-50.091c26.24,31.616,65.131,50.091,106.709,50.091c26.645,0,52.48-7.637,74.624-21.781V266.667z" fill="#00bfd8" data-original="#000000" style="" class=""/>
	</g>
</g>
<g xmlns="http://www.w3.org/2000/svg">
	<g>
		<path d="M327.577,195.136c-4.16-4.16-10.923-4.16-15.083,0l-77.845,77.781l-35.072-35.115c-4.16-4.16-10.923-4.16-15.083,0    c-4.16,4.139-4.16,10.923,0,15.083l42.581,42.667c2.005,1.984,4.715,3.115,7.552,3.115s5.547-1.131,7.531-3.115l85.419-85.333    C331.737,206.059,331.737,199.296,327.577,195.136z" fill="#00bfd8" data-original="#000000" style="" class=""/>
	</g>
</g>
<g xmlns="http://www.w3.org/2000/svg">
</g>
<g xmlns="http://www.w3.org/2000/svg">
</g>
<g xmlns="http://www.w3.org/2000/svg">
</g>
<g xmlns="http://www.w3.org/2000/svg">
</g>
<g xmlns="http://www.w3.org/2000/svg">
</g>
<g xmlns="http://www.w3.org/2000/svg">
</g>
<g xmlns="http://www.w3.org/2000/svg">
</g>
<g xmlns="http://www.w3.org/2000/svg">
</g>
<g xmlns="http://www.w3.org/2000/svg">
</g>
<g xmlns="http://www.w3.org/2000/svg">
</g>
<g xmlns="http://www.w3.org/2000/svg">
</g>
<g xmlns="http://www.w3.org/2000/svg">
</g>
<g xmlns="http://www.w3.org/2000/svg">
</g>
<g xmlns="http://www.w3.org/2000/svg">
</g>
<g xmlns="http://www.w3.org/2000/svg">
</g>
</g></svg>
