<?xml version="1.0"?>
<svg xmlns="http://www.w3.org/2000/svg" xmlns:xlink="http://www.w3.org/1999/xlink" xmlns:svgjs="http://svgjs.com/svgjs" version="1.1" width="512" height="512" x="0" y="0" viewBox="0 0 512 512" style="enable-background:new 0 0 512 512" xml:space="preserve" class=""><g><g xmlns="http://www.w3.org/2000/svg"><g><path d="m387.737 52.638h-.057c-5.522 0-9.972 4.477-9.972 10s4.506 10 10.028 10 10-4.477 10-10-4.476-10-9.999-10z" fill="#00bfd8" data-original="#000000" style="" class=""/><path d="m441.708 52.638h-.057c-5.522 0-9.972 4.477-9.972 10s4.506 10 10.028 10 10-4.477 10-10-4.477-10-9.999-10z" fill="#00bfd8" data-original="#000000" style="" class=""/><path d="m333.767 52.638h-.057c-5.522 0-9.972 4.477-9.972 10s4.506 10 10.028 10 10-4.477 10-10-4.477-10-9.999-10z" fill="#00bfd8" data-original="#000000" style="" class=""/><path d="m220.525 52.638h-150.262c-5.523 0-10 4.477-10 10s4.477 10 10 10h150.262c5.523 0 10-4.477 10-10s-4.477-10-10-10z" fill="#00bfd8" data-original="#000000" style="" class=""/><path d="m479.919 0h-447.837c-17.69 0-32.082 14.392-32.082 32.082v370.283c0 17.69 14.392 32.082 32.082 32.082h53.551v40.286c0 20.55 16.719 37.269 37.269 37.269h266.197c20.55 0 37.269-16.719 37.269-37.269v-40.286h53.552c17.689 0 32.081-14.392 32.081-32.082v-370.283c-.001-17.69-14.393-32.082-32.082-32.082zm12.081 402.364c0 6.662-5.42 12.082-12.081 12.082h-53.552v-205.911c0-20.55-16.719-37.269-37.269-37.269h-88.241c-5.522 0-10 4.477-10 10s4.478 10 10 10h88.241c9.521 0 17.269 7.747 17.269 17.269v266.197c0 9.522-7.747 17.269-17.269 17.269h-266.196c-9.522 0-17.269-7.747-17.269-17.269v-266.197c0-9.522 7.747-17.269 17.269-17.269h88.127c5.523 0 10-4.477 10-10s-4.477-10-10-10h-88.127c-20.55 0-37.269 16.719-37.269 37.269v205.911h-53.551c-6.662 0-12.082-5.42-12.082-12.082v-277.059h472zm0-297.059h-472v-73.223c0-6.662 5.42-12.082 12.082-12.082h447.837c6.661 0 12.081 5.42 12.081 12.082z" fill="#00bfd8" data-original="#000000" style="" class=""/><path d="m139.031 279.167c5.523 0 10-4.477 10-10v-34.503h34.503c5.523 0 10-4.477 10-10s-4.477-10-10-10h-44.503c-5.523 0-10 4.477-10 10v44.503c0 5.522 4.477 10 10 10z" fill="#00bfd8" data-original="#000000" style="" class=""/><path d="m328.438 234.664h34.532v34.503c0 5.523 4.478 10 10 10s10-4.477 10-10v-44.503c0-5.523-4.478-10-10-10h-44.532c-5.522 0-10 4.477-10 10s4.477 10 10 10z" fill="#00bfd8" data-original="#000000" style="" class=""/><path d="m183.534 448.603h-34.503v-34.532c0-5.523-4.477-10-10-10s-10 4.477-10 10v44.532c0 5.523 4.477 10 10 10h44.503c5.523 0 10-4.477 10-10s-4.477-10-10-10z" fill="#00bfd8" data-original="#000000" style="" class=""/><path d="m372.97 404.071c-5.522 0-10 4.477-10 10v34.532h-34.532c-5.522 0-10 4.477-10 10s4.478 10 10 10h44.532c5.522 0 10-4.477 10-10v-44.532c0-5.523-4.478-10-10-10z" fill="#00bfd8" data-original="#000000" style="" class=""/><path d="m220.418 341.619c0 19.628 15.956 35.597 35.568 35.597 19.627 0 35.596-15.969 35.596-35.597 0-19.612-15.969-35.568-35.596-35.568-19.612 0-35.568 15.955-35.568 35.568zm51.164 0c0 8.6-6.996 15.597-15.596 15.597-8.584 0-15.568-6.997-15.568-15.597 0-8.584 6.984-15.568 15.568-15.568 8.6 0 15.596 6.984 15.596 15.568z" fill="#00bfd8" data-original="#000000" style="" class=""/><path d="m167.605 293.845c-17.794 12.274-38.574 32.151-38.574 47.774 0 15.636 20.78 35.514 38.575 47.786 15.643 10.788 47.925 28.884 88.38 28.884s72.746-18.096 88.393-28.883c17.802-12.272 38.591-32.151 38.591-47.787 0-15.623-20.788-35.5-38.59-47.775-15.65-10.791-47.944-28.895-88.394-28.895s-72.736 18.104-88.381 28.896zm-18.563 47.775c.491-3.085 7.74-15.174 26.481-28.869-3.286 9.158-5.023 18.908-5.023 28.868 0 9.962 1.739 19.719 5.03 28.884-18.757-13.703-26.001-25.798-26.488-28.883zm187.404-28.883c18.761 13.701 26.019 25.795 26.512 28.883-.489 3.087-7.742 15.189-26.52 28.897 3.293-9.171 5.032-18.933 5.032-28.899.001-9.963-1.737-19.718-5.024-28.881zm-14.975 28.882c0 18.477-7.808 36.032-21.45 48.471-12.627 4.677-27.587 8.198-44.035 8.198-16.432 0-31.377-3.515-43.994-8.185-13.669-12.432-21.491-29.993-21.491-48.485 0-18.521 7.838-36.088 21.532-48.495 12.609-4.665 27.54-8.175 43.954-8.175 16.429 0 31.375 3.516 43.994 8.188 13.667 12.416 21.49 29.977 21.49 48.483z" fill="#00bfd8" data-original="#000000" style="" class=""/><path d="m255.958 191.266h.028c5.523 0 9.986-4.477 9.986-10s-4.491-10-10.014-10-10 4.477-10 10 4.477 10 10 10z" fill="#00bfd8" data-original="#000000" style="" class=""/></g></g></g></svg>
