<?xml version="1.0"?>
<svg xmlns="http://www.w3.org/2000/svg" xmlns:xlink="http://www.w3.org/1999/xlink" xmlns:svgjs="http://svgjs.com/svgjs" version="1.1" width="512" height="512" x="0" y="0" viewBox="0 0 469.333 469.333" style="enable-background:new 0 0 512 512" xml:space="preserve" class=""><g>
<g xmlns="http://www.w3.org/2000/svg">
	<g>
		<g>
			<path d="M426.667,0h-384C19.146,0,0,19.135,0,42.667v384c0,23.531,19.146,42.667,42.667,42.667h384     c23.521,0,42.667-19.135,42.667-42.667v-384C469.333,19.135,450.188,0,426.667,0z M448,426.667     c0,11.76-9.563,21.333-21.333,21.333h-384c-11.771,0-21.333-9.573-21.333-21.333v-320H448V426.667z M448,85.333H21.333V42.667     c0-11.76,9.563-21.333,21.333-21.333h384c11.771,0,21.333,9.573,21.333,21.333V85.333z" fill="#00bfd8" data-original="#000000" style="" class=""/>
			<circle cx="53.333" cy="53.333" r="10.667" fill="#00bfd8" data-original="#000000" style="" class=""/>
			<circle cx="96" cy="53.333" r="10.667" fill="#00bfd8" data-original="#000000" style="" class=""/>
			<circle cx="138.667" cy="53.333" r="10.667" fill="#00bfd8" data-original="#000000" style="" class=""/>
			<path d="M230.167,393.667c1.417,0.667,2.958,1,4.5,1s3.083-0.333,4.5-1c79.5-37.021,91.5-64.448,91.5-139.521V198.49     c0-4.615-2.979-8.708-7.354-10.146l-85.333-27.823c-2.167-0.688-4.458-0.688-6.625,0l-85.333,27.823     c-4.375,1.438-7.354,5.531-7.354,10.146v55.656C138.667,329.219,150.666,356.646,230.167,393.667z M160,206.229l74.667-24.344     l74.667,24.344v47.917c0,65.021-7.438,86.031-74.667,118.062C167.437,340.177,160,319.167,160,254.146V206.229z" fill="#00bfd8" data-original="#000000" style="" class=""/>
			<path d="M192,288h32v48.583c0,3.719,1.938,7.167,5.104,9.104c1.708,1.042,3.625,1.563,5.563,1.563     c1.667,0,3.333-0.385,4.875-1.177c36.333-18.635,46.75-33.302,48.437-68.219c0.146-2.917-0.917-5.76-2.917-7.875     c-2.021-2.115-4.813-3.313-7.729-3.313h-32v-51.125c0-3.417-1.646-6.625-4.396-8.635c-2.771-1.99-6.313-2.563-9.583-1.51     l-42.667,13.917c-4.375,1.438-7.354,5.531-7.354,10.146v47.875C181.333,283.229,186.104,288,192,288z M245.333,288h20.396     c-1.854,13.354-6.604,21.292-20.396,30.292V288z M202.667,237.198L224,230.24v36.427h-21.333V237.198z" fill="#00bfd8" data-original="#000000" style="" class=""/>
		</g>
	</g>
</g>
<g xmlns="http://www.w3.org/2000/svg">
</g>
<g xmlns="http://www.w3.org/2000/svg">
</g>
<g xmlns="http://www.w3.org/2000/svg">
</g>
<g xmlns="http://www.w3.org/2000/svg">
</g>
<g xmlns="http://www.w3.org/2000/svg">
</g>
<g xmlns="http://www.w3.org/2000/svg">
</g>
<g xmlns="http://www.w3.org/2000/svg">
</g>
<g xmlns="http://www.w3.org/2000/svg">
</g>
<g xmlns="http://www.w3.org/2000/svg">
</g>
<g xmlns="http://www.w3.org/2000/svg">
</g>
<g xmlns="http://www.w3.org/2000/svg">
</g>
<g xmlns="http://www.w3.org/2000/svg">
</g>
<g xmlns="http://www.w3.org/2000/svg">
</g>
<g xmlns="http://www.w3.org/2000/svg">
</g>
<g xmlns="http://www.w3.org/2000/svg">
</g>
</g></svg>
